<?xml version="1.0" encoding="UTF-8" standalone="no"?>
<!-- Created with Inkscape (http://www.inkscape.org/) -->

<svg
   width="1000mm"
   height="1000mm"
   viewBox="0 0 1000 999.99998"
   version="1.1"
   id="svg1"
   inkscape:export-filename="AISIGHT BW.png"
   inkscape:export-xdpi="96"
   inkscape:export-ydpi="96"
   xmlns:inkscape="http://www.inkscape.org/namespaces/inkscape"
   xmlns:sodipodi="http://sodipodi.sourceforge.net/DTD/sodipodi-0.dtd"
   xmlns="http://www.w3.org/2000/svg"
   xmlns:svg="http://www.w3.org/2000/svg">
  <sodipodi:namedview
     id="namedview1"
     pagecolor="#ffffff"
     bordercolor="#000000"
     borderopacity="0.25"
     inkscape:showpageshadow="2"
     inkscape:pageopacity="0.0"
     inkscape:pagecheckerboard="0"
     inkscape:deskcolor="#d1d1d1"
     inkscape:document-units="mm"
     inkscape:export-bgcolor="#ffffff00">
    <inkscape:page
       x="0"
       y="0"
       width="1000"
       height="1000"
       id="page2"
       margin="0"
       bleed="0" />
  </sodipodi:namedview>
  <defs
     id="defs1" />
  <g
     inkscape:label="Layer 1"
     inkscape:groupmode="layer"
     id="layer1"
     transform="translate(14.2875,-59.53125)">
    <path
       style="fill:#000000;stroke-width:3.89749"
       d="m 686.91427,918.36618 c -6.56242,-0.53487 -18.34975,-1.96145 -26.19407,-3.17021 l -14.26238,-2.1977 -15.06965,-4.15438 c -8.28827,-2.28489 -20.28684,-6.15482 -26.66343,-8.59981 l -11.59382,-4.4455 -13.761,-7.24199 c -16.20979,-8.53078 -23.78055,-13.41096 -36.58582,-23.58338 l -9.44311,-7.50153 -10.59759,-10.97211 c -21.75243,-22.52119 -37.12125,-47.22418 -49.22831,-79.12712 l -4.3538,-11.47256 -131.33176,-0.0242 -131.3317,-0.0244 -7.28161,22.19168 c -6.6898,20.38807 -12.75386,38.77501 -33.50806,101.60052 l -7.5076,22.7264 H 97.676004 37.15145 l 1.43391,-4.01052 c 1.702537,-4.76185 29.921591,-87.86718 35.316324,-104.00683 2.06443,-6.17625 11.45703,-33.84903 20.87245,-61.49507 9.415416,-27.64603 19.276856,-56.76259 21.914316,-64.70347 2.63744,-7.94088 7.11401,-21.17569 9.94791,-29.41067 2.83389,-8.23498 6.85528,-20.02597 8.93642,-26.20223 2.08113,-6.17625 8.78481,-25.90812 14.89707,-43.84865 22.59357,-66.31587 58.30246,-171.45657 72.10048,-212.29158 6.1614,-18.23462 13.90955,-41.09475 17.21807,-50.80026 6.65821,-19.53175 25.10509,-74.25986 31.12737,-92.34838 2.12459,-6.38151 4.11209,-12.03637 4.41664,-12.56638 l 0.55371,-0.96365 63.32832,0.007 63.32831,0.007 3.16774,9.35165 c 1.74225,5.14341 7.186,21.38331 12.09725,36.08863 4.91123,14.70534 11.39531,33.95595 14.40912,42.77914 3.01377,8.82323 9.35435,27.59256 14.09015,41.70969 4.73581,14.11712 11.88966,35.29284 15.89746,47.05709 4.00777,11.76428 11.16973,32.93996 15.91542,47.05708 16.79599,49.9631 31.46906,93.0041 32.15621,94.32483 l 0.69614,1.33798 0.14881,-14.14283 0.14882,-14.14281 1.63052,-10.16004 c 2.22073,-13.83789 5.52826,-26.12842 10.95076,-40.69179 l 4.56015,-12.24743 5.39497,-9.75769 c 6.76171,-12.22969 15.41327,-24.82605 23.06675,-33.58429 l 5.90673,-6.75927 1.41447,0.70846 c 0.77798,0.38965 5.66517,4.06749 10.86042,8.17297 l 9.4459,7.46452 10.8724,6.64427 c 27.2572,16.65728 56.77617,27.84176 86.07242,32.61209 l 11.43452,1.86188 18.89184,0.046 18.89181,0.046 9.4459,-1.41287 c 5.19525,-0.77711 13.35625,-2.3341 18.13553,-3.46002 4.77932,-1.12594 9.13831,-2.04715 9.68669,-2.04715 h 0.997 l 0.25629,63.90137 0.25629,63.90134 11.98368,3.31722 c 32.48794,8.99288 63.83599,23.36687 86.79058,39.79598 l 8.43455,6.03678 9.28269,8.88952 9.28268,8.88953 5.14742,6.64097 c 18.0898,23.3386 28.78208,51.3375 32.70421,85.63953 l 1.20651,10.55193 -0.54525,16.71978 -0.54525,16.7198 -2.13672,11.62508 -2.13677,11.62506 -3.02938,9.76453 -3.02939,9.76448 -4.44412,9.56294 c -11.35781,24.43983 -25.4405,42.61871 -45.28796,58.4609 -31.15764,24.86993 -71.41461,40.81741 -117.18514,46.42186 l -13.3386,1.63331 -21.87472,0.44305 -21.87476,0.44305 z m 61.14984,-104.66353 11.43449,-2.1504 8.63045,-3.15929 8.63042,-3.15934 7.80259,-4.36626 7.80264,-4.36626 6.43601,-5.75372 6.43599,-5.75372 3.29484,-4.94824 c 4.12399,-6.19347 8.46678,-16.51228 10.18235,-24.19414 l 1.31361,-5.88215 v -9.09058 -9.09058 l -1.27531,-5.88214 -1.27532,-5.88214 -4.10559,-9.09055 -4.10554,-9.09056 -6.48892,-6.95889 -6.48887,-6.95885 -5.95051,-4.227 c -6.3564,-4.51529 -18.52848,-11.26594 -20.31365,-11.26594 h -1.07925 v 52.46332 52.46331 l -5.22013,2.45277 c -7.19141,3.37904 -19.40883,6.71647 -30.07774,8.21638 l -8.94875,1.25807 -14.9146,-0.625 -14.9146,-0.62495 -7.4573,-1.74915 c -10.21681,-2.3964 -24.67854,-7.49798 -28.5863,-10.08417 l -3.23147,-2.13864 v -48.03251 -48.03248 l -6.71158,-1.24122 c -9.56961,-1.76977 -20.92825,-4.97586 -32.92919,-9.2946 l -10.3971,-3.74159 -9.70598,-5.23895 c -12.00341,-6.47896 -22.08663,-13.39613 -31.46061,-21.58212 l -7.18561,-6.27496 -6.6841,-7.938 c -3.67623,-4.3659 -6.8433,-7.7667 -7.03789,-7.5574 -0.19466,0.20938 7.31436,23.17416 16.68664,51.03293 l 17.0405,50.65231 6.35092,14.22546 6.35095,14.2254 5.51889,9.10686 5.51895,9.10688 9.16799,10.19339 9.16804,10.19339 8.7418,6.28936 c 19.21371,13.82349 42.18047,22.40019 68.3339,25.51857 l 8.45161,1.00774 15.90893,-0.41464 15.90887,-0.4146 z M 432.86909,646.75722 c 0,-0.59219 -6.89933,-23.33196 -15.33181,-50.53287 -12.4286,-40.09119 -52.60876,-171.05852 -74.82775,-243.90124 -2.47833,-8.12488 -4.67894,-14.58654 -4.89026,-14.35925 -0.56963,0.61271 -95.85691,307.60202 -95.85691,308.82457 v 1.04545 h 95.45339 95.45334 z m 222.9579,-150.357 0.2638,-64.80586 -0.76719,-0.50975 -0.7672,-0.50976 -6.3466,4.87121 -6.34655,4.8712 -6.1275,7.23783 -6.12751,7.23783 -4.81393,10.69478 -4.81398,10.69477 -1.32119,5.88216 -1.32125,5.88213 0.0263,11.22951 0.0263,11.22956 2.29365,7.98338 c 1.2615,4.39089 3.55286,10.66653 5.09196,13.94591 l 2.79829,5.96245 4.61257,5.51819 c 6.05592,7.24491 19.26085,17.39033 22.63459,17.39033 h 0.74522 z m 32.05933,-99.3943 c -12.11217,-1.90298 -20.76551,-4.10497 -33.78415,-8.59685 l -10.93734,-3.77381 -15.90892,-8.40262 -15.90888,-8.40261 -8.01839,-5.80324 c -9.92707,-7.18459 -22.10437,-17.46561 -29.02185,-24.50246 l -5.23881,-5.32928 6.64119,-7.94984 c 3.65268,-4.3724 6.80459,-7.94985 7.00425,-7.94985 0.19955,0 4.48675,3.8865 9.52681,8.63669 l 9.16375,8.63664 10.36394,7.49123 10.36398,7.49128 13.99655,7.54175 13.99651,7.54176 11.85136,4.1859 11.85138,4.18591 11.51483,2.18355 11.51483,2.18356 14.91459,0.0573 14.91455,0.0573 7.95447,-1.29007 c 4.37494,-0.70952 12.42881,-2.5267 17.8975,-4.03813 l 9.94305,-2.74808 9.73763,-4.14415 c 24.95388,-10.61987 46.35813,-25.12755 65.15185,-44.15948 l 4.29376,-4.3482 6.95513,7.81803 6.95513,7.818 -0.39418,1.2719 c -0.57325,1.84984 -17.78732,17.21969 -28.65784,25.58761 l -9.35463,7.2011 -16.40607,9.0021 -16.40602,9.00213 -8.80705,3.32444 c -12.07744,4.559 -26.65159,8.42371 -38.73377,10.27129 l -10.12896,1.54887 -14.91455,-0.0954 -14.91459,-0.0953 z m 10.58551,-38.54912 -5.34561,-1.5465 -7.0832,-3.98698 -7.08317,-3.98695 -6.47317,-6.96256 -6.47316,-6.96257 -3.63378,-7.48633 -3.6338,-7.48638 -1.57614,-6.57124 -1.57615,-6.57125 0.0189,-6.79723 0.0189,-6.79725 1.42376,-7.22675 1.42376,-7.22674 3.7394,-7.65406 3.73937,-7.65408 6.72694,-7.33666 6.72692,-7.33671 7.99444,-4.15833 7.99444,-4.1583 7.16588,-1.30006 7.16588,-1.30007 7.22751,0.65713 7.22752,0.65718 6.22278,2.23321 c 3.42252,1.22825 7.26718,2.95682 8.54371,3.84124 l 2.3209,1.608 -1.49444,1.78791 c -0.82195,0.98337 -3.92656,6.60059 -6.89914,12.48272 -2.97259,5.88216 -8.42459,16.37996 -12.11555,23.32849 -3.69097,6.94849 -6.55262,12.7677 -6.35916,12.93153 0.19355,0.1637 10.96933,-5.82302 23.94641,-13.30405 l 23.59464,-13.60195 0.88216,1.20512 c 0.48519,0.66282 1.89231,4.09273 3.12691,7.62202 l 2.2447,6.41689 0.50061,10.30135 0.50057,10.30131 -1.23023,5.74087 -1.23022,5.74082 -3.51737,8.02108 -3.51735,8.02112 -7.55995,8.11315 -7.55998,8.11316 -6.46298,3.36061 -6.46299,3.36062 -5.92615,1.62736 -5.92615,1.62733 -7.99414,-0.0703 -7.99412,-0.0703 z m -122.98487,-84.02084 -6.88406,-7.63613 6.95464,-6.93136 c 14.68385,-14.63477 34.59692,-28.99149 54.6878,-39.42834 l 10.94379,-5.68511 12.42236,-4.3413 12.42236,-4.3413 9.4459,-2.05475 c 26.34148,-5.72998 49.80874,-5.56818 76.06443,0.52447 l 10.93734,2.53802 11.7706,4.3785 11.7706,4.37849 10.10412,5.40171 c 13.4442,7.18732 25.07751,14.76433 35.95612,23.41893 9.65794,7.68347 22.69896,19.9896 23.14294,21.83874 l 0.27396,1.14086 -6.93175,7.39867 -6.93177,7.39866 -6.59771,-6.33085 C 820.41466,262.07146 801.7015,248.77097 783.36198,239.3744 l -8.94875,-4.58506 -10.4402,-3.65821 c -5.74212,-2.012 -14.69088,-4.65175 -19.88613,-5.86614 l -9.4459,-2.20794 -17.40036,-0.55569 -17.40033,-0.55566 -12.34388,2.26384 c -19.34011,3.54695 -32.60065,8.14467 -50.71017,17.5823 l -10.35583,5.39685 -13.01038,9.30807 -13.01036,9.30805 -8.31771,8.13365 c -4.57474,4.47346 -8.63343,8.1336 -9.0193,8.1336 -0.3859,0 -3.79945,-3.43624 -7.58569,-7.6361 z m 168.00828,-24.59978 -1.89415,-2.29046 2.23722,1.47826 c 1.23044,0.81303 2.23717,1.84371 2.23717,2.29042 0,1.28952 -0.55374,0.97224 -2.58024,-1.47822 z"
       id="path1" />
  </g>
</svg>
